<?xml version="1.0" encoding="iso-8859-1"?>
<!-- Generator: Adobe Illustrator 19.0.0, SVG Export Plug-In . SVG Version: 6.00 Build 0)  -->
<svg version="1.1" id="Layer_1" xmlns="http://www.w3.org/2000/svg" xmlns:xlink="http://www.w3.org/1999/xlink" x="0px" y="0px"
	 viewBox="0 0 512 512" style="enable-background:new 0 0 512 512;" xml:space="preserve">
<g>
	<g>
		<path d="M198.464,457.344c-1.758-5.352-7.522-8.262-12.873-6.505c-9.515,3.126-19.47,4.712-29.589,4.712
			c-5.633,0-10.199,4.567-10.199,10.199c0,5.632,4.566,10.199,10.199,10.199c12.286,0,24.383-1.929,35.957-5.732
			C197.31,468.459,200.223,462.695,198.464,457.344z"/>
	</g>
</g>
<g>
	<g>
		<path d="M115.573,446.512c-32.954-15.589-54.247-49.203-54.247-85.637c0-5.632-4.566-10.199-10.199-10.199
			c-5.633,0-10.199,4.567-10.199,10.199c0,22.22,6.348,43.789,18.357,62.374c11.688,18.09,28.137,32.511,47.566,41.702
			c1.409,0.666,2.893,0.981,4.355,0.981c3.821,0,7.484-2.156,9.226-5.84C122.84,455.002,120.664,448.921,115.573,446.512z"/>
	</g>
</g>
<g>
	<g>
		<path d="M489.039,29.366L462.661,2.986c-3.983-3.982-10.441-3.982-14.425,0L261.48,189.742l-27.258-27.258
			c-3.983-3.982-10.441-3.982-14.425,0c-3.983,3.983-3.983,10.441,0,14.425l52.973,52.773l-17.415,17.416
			c-26.583-23.243-61.35-37.347-99.352-37.347c-83.331,0-151.125,67.795-151.125,151.126S72.671,512,156.001,512
			s151.125-67.794,151.125-151.125c0-38.003-14.104-72.77-37.347-99.354l17.416-17.416l11.011,11.01
			c5.16,5.161,11.844,8.067,18.479,8.067c0.316,0,0.633-0.007,0.948-0.02c5.719-0.241,10.808-2.669,14.328-6.839
			c0.103-0.122,0.203-0.246,0.3-0.372l19.224-25.057c10.408-13.567,22.588-25.724,36.202-36.135
			c15.966-12.208,45.252-35.696,64.341-51.351c7.834-6.427,15.224-13.49,21.964-20.995l23.997-26.723
			c0.083-0.092,0.162-0.185,0.241-0.278C512.975,77.746,509.024,49.353,489.039,29.366z M286.729,360.875
			c0,72.083-58.644,130.726-130.726,130.726S25.275,432.957,25.275,360.875s58.644-130.727,130.726-130.727
			c32.377,0,62.04,11.837,84.897,31.404l-69.012,69.013c-4.751-2.5-10.154-3.923-15.885-3.923
			c-18.876,0-34.233,15.357-34.233,34.233s15.357,34.232,34.233,34.232s34.233-15.357,34.233-34.232
			c0-5.732-1.423-11.134-3.924-15.886l69.012-69.013C274.89,298.836,286.729,328.497,286.729,360.875z M169.837,360.875
			c0,7.628-6.206,13.833-13.834,13.833c-7.628,0-13.834-6.206-13.834-13.833c0-7.628,6.206-13.834,13.834-13.834
			C163.63,347.041,169.837,353.246,169.837,360.875z M482.674,82.216l-23.858,26.569c-6.051,6.738-12.687,13.08-19.723,18.851
			c-18.956,15.547-48.002,38.844-63.795,50.921c-15.04,11.5-28.496,24.931-39.996,39.922l-18.652,24.312
			c-0.732-0.013-2.367-0.445-4.02-2.097l-36.626-36.625L455.448,24.624l19.167,19.167C486.624,55.798,490.215,72.991,482.674,82.216
			z"/>
	</g>
</g>
<g>
</g>
<g>
</g>
<g>
</g>
<g>
</g>
<g>
</g>
<g>
</g>
<g>
</g>
<g>
</g>
<g>
</g>
<g>
</g>
<g>
</g>
<g>
</g>
<g>
</g>
<g>
</g>
<g>
</g>
</svg>
